<?xml version="1.0" standalone="no"?>
<!DOCTYPE svg PUBLIC "-//W3C//DTD SVG 20010904//EN"
 "http://www.w3.org/TR/2001/REC-SVG-20010904/DTD/svg10.dtd">
<svg version="1.0" xmlns="http://www.w3.org/2000/svg"
 width="223.000000pt" height="223.000000pt" viewBox="0 0 223.000000 223.000000"
 preserveAspectRatio="xMidYMid meet">

<g transform="translate(0.000000,223.000000) scale(0.100000,-0.100000)"
fill="#000000" stroke="none">
<path d="M1410 1455 c0 -190 -4 -325 -9 -325 -5 0 -11 4 -13 8 -3 8 -33 36
-288 274 -323 300 -471 374 -669 338 -163 -30 -295 -146 -342 -302 -18 -58
-21 -88 -17 -177 4 -94 8 -115 36 -175 42 -89 135 -187 216 -226 71 -34 164
-60 218 -60 l38 0 0 79 0 78 -42 7 c-140 22 -225 77 -277 178 -29 58 -33 75
-33 139 2 171 126 299 289 299 117 -1 202 -48 381 -213 88 -81 289 -267 407
-377 45 -41 108 -99 140 -129 33 -30 75 -68 93 -85 l32 -30 0 512 0 512 -80 0
-80 0 0 -325z"/>
<path d="M658 965 l2 -505 80 0 80 0 0 320 c0 176 2 320 5 320 4 0 41 -33 83
-72 283 -269 363 -340 449 -406 152 -115 239 -147 387 -140 84 3 102 8 169 41
157 78 246 226 247 412 1 259 -181 452 -462 490 l-48 6 0 -85 0 -86 29 0 c54
0 159 -40 208 -78 27 -22 61 -62 78 -93 26 -48 30 -64 30 -139 0 -73 -4 -93
-28 -142 -35 -71 -100 -129 -168 -151 -63 -21 -107 -21 -179 -2 -96 25 -161
79 -630 515 -197 183 -325 300 -330 300 -3 0 -4 -227 -2 -505z"/>
</g>
</svg>
